<svg width="197" height="197" viewBox="0 0 197 197" fill="none" xmlns="http://www.w3.org/2000/svg">
<circle cx="98.5" cy="98.5" r="98.5" fill="#5865F2"/>
<path d="M117.15 50C115.912 52.1973 114.801 54.4704 113.791 56.794C104.193 55.3544 94.4191 55.3544 84.7964 56.794C83.8114 54.4704 82.6748 52.1973 81.4373 50C72.4207 51.5407 63.6314 54.2431 55.2968 58.0568C38.779 82.5304 34.3086 106.372 36.5312 129.886C46.2044 137.034 57.0395 142.489 68.5817 145.975C71.1831 142.489 73.4815 138.777 75.4515 134.912C71.7135 133.523 68.1018 131.781 64.6417 129.76C65.5509 129.103 66.4349 128.422 67.2936 127.765C87.5746 137.312 111.063 137.312 131.369 127.765C132.228 128.472 133.112 129.154 134.021 129.76C130.561 131.806 126.95 133.523 123.186 134.938C125.156 138.802 127.455 142.515 130.056 146C141.598 142.515 152.433 137.084 162.107 129.937C164.733 102.66 157.611 79.0197 143.29 58.0821C134.981 54.2684 126.192 51.5659 117.175 50.0505L117.15 50ZM78.2802 115.414C72.0419 115.414 66.8643 109.757 66.8643 102.761C66.8643 95.7649 71.8398 90.0821 78.255 90.0821C84.6702 90.0821 89.7719 95.7901 89.6709 102.761C89.5699 109.732 84.6449 115.414 78.2802 115.414ZM120.358 115.414C114.094 115.414 108.967 109.757 108.967 102.761C108.967 95.7649 113.942 90.0821 120.358 90.0821C126.773 90.0821 131.849 95.7901 131.748 102.761C131.647 109.732 126.722 115.414 120.358 115.414Z" fill="white"/>
</svg>
