<svg width="65" height="62" viewBox="0 0 65 62" fill="none" xmlns="http://www.w3.org/2000/svg">
<path d="M30.349 5.11486C31.0826 3.62837 33.2023 3.62838 33.9359 5.11487L41.0817 19.5937C41.373 20.184 41.9361 20.5932 42.5876 20.6878L58.5659 23.0096C60.2064 23.248 60.8614 25.2639 59.6744 26.421L48.1123 37.6912C47.6409 38.1507 47.4258 38.8127 47.5371 39.4615L50.2665 55.3753C50.5468 57.0091 48.8319 58.2551 47.3646 57.4837L33.0731 49.9702C32.4905 49.6639 31.7944 49.6639 31.2118 49.9702L16.9203 57.4837C15.453 58.2551 13.7382 57.0091 14.0184 55.3753L16.7478 39.4615C16.8591 38.8127 16.644 38.1507 16.1726 37.6912L4.61054 26.421C3.42351 25.2639 4.07853 23.248 5.71897 23.0096L21.6974 20.6878C22.3488 20.5932 22.9119 20.184 23.2032 19.5937L30.349 5.11486Z" stroke="#FFE100" stroke-opacity="0.5" stroke-width="8"/>
</svg>
