<svg width="57" height="54" viewBox="0 0 57 54" fill="none" xmlns="http://www.w3.org/2000/svg">
<path d="M26.3446 1.11486C27.0782 -0.371628 29.1979 -0.371624 29.9315 1.11487L37.0773 15.5937C37.3686 16.184 37.9317 16.5932 38.5832 16.6878L54.5615 19.0096C56.202 19.248 56.857 21.2639 55.67 22.421L44.1079 33.6912C43.6365 34.1507 43.4214 34.8127 43.5327 35.4615L46.2621 51.3753C46.5424 53.0091 44.8275 54.2551 43.3602 53.4837L29.0687 45.9702C28.4861 45.6639 27.79 45.6639 27.2074 45.9702L12.9159 53.4837C11.4486 54.2551 9.73376 53.0091 10.014 51.3753L12.7434 35.4615C12.8547 34.8127 12.6396 34.1507 12.1682 33.6912L0.606148 22.421C-0.580886 21.2639 0.0741373 19.248 1.71458 19.0096L17.693 16.6878C18.3444 16.5932 18.9075 16.184 19.1988 15.5937L26.3446 1.11486Z" fill="#FFE100"/>
</svg>
