<?xml version="1.0" encoding="UTF-8" standalone="no"?>
<svg xmlns:ffdec="https://www.free-decompiler.com/flash" xmlns:xlink="http://www.w3.org/1999/xlink" ffdec:objectType="frame" height="641.85px" width="960.0px" xmlns="http://www.w3.org/2000/svg">
  <g transform="matrix(1.0, 0.0, 0.0, 1.0, 0.0, 30.95)">
    <use ffdec:characterId="551" height="540.0" transform="matrix(1.0, 0.0, 0.0, 1.0, 0.0, 0.0)" width="960.0" xlink:href="#shape0"/>
    <use ffdec:characterId="544" height="73.4" transform="matrix(1.0, 0.0, 0.0, 1.0, 246.85, 395.6)" width="469.45" xlink:href="#sprite0"/>
    <filter id="filter0">
      <feColorMatrix in="SourceGraphic" result="filterResult0" type="matrix" values="0 0 0 0 0.1764706,0 0 0 0 0.5058824,0 0 0 0 1.0,0 0 0 1 0"/>
      <feConvolveMatrix divisor="100.0" in="filterResult0" kernelMatrix="1 1 1 1 1 1 1 1 1 1 1 1 1 1 1 1 1 1 1 1 1 1 1 1 1 1 1 1 1 1 1 1 1 1 1 1 1 1 1 1 1 1 1 1 1 1 1 1 1 1 1 1 1 1 1 1 1 1 1 1 1 1 1 1 1 1 1 1 1 1 1 1 1 1 1 1 1 1 1 1 1 1 1 1 1 1 1 1 1 1 1 1 1 1 1 1 1 1 1 1" order="10 10" result="filterResult1"/>
      <feConvolveMatrix divisor="100.0" in="filterResult1" kernelMatrix="1 1 1 1 1 1 1 1 1 1 1 1 1 1 1 1 1 1 1 1 1 1 1 1 1 1 1 1 1 1 1 1 1 1 1 1 1 1 1 1 1 1 1 1 1 1 1 1 1 1 1 1 1 1 1 1 1 1 1 1 1 1 1 1 1 1 1 1 1 1 1 1 1 1 1 1 1 1 1 1 1 1 1 1 1 1 1 1 1 1 1 1 1 1 1 1 1 1 1 1" order="10 10" result="filterResult2"/>
      <feComposite in="SourceGraphic" in2="filterResult2" operator="over" result="filterResult3"/>
    </filter>
    <use ffdec:characterId="569" filter="url(#filter0)" height="155.75" transform="matrix(1.5968, 0.0, 0.0, 1.5968, 259.7923, 18.41)" width="415.95" xlink:href="#sprite8"/>
  </g>
  <defs>
  <!-- Gradient -->
    <g id="shape0" transform="matrix(1.0, 0.0, 0.0, 1.0, 0.0, 0.0)">
      <path d="M0.0 0.0 L960.0 0.0 960.0 540.0 0.0 540.0 0.0 0.0" fill="url(#gradient0)" fill-rule="evenodd" stroke="none"/>
    </g>
    <linearGradient gradientTransform="matrix(0.0, -0.3297, 0.3289, 0.0, 480.0, 270.05)" gradientUnits="userSpaceOnUse" id="gradient0" spreadMethod="pad" x1="-819.2" x2="819.2">
      <stop offset="0.0" stop-color="#777777"/>
      <stop offset="1.0" stop-color="#000000"/>
    </linearGradient>
    <!-- Swirl thing -->
    <!-- <g id="sprite0" transform="matrix(1.0, 0.0, 0.0, 1.0, 0.0, 0.0)">
      <use ffdec:characterId="543" height="73.4" transform="matrix(1.0, 0.0, 0.0, 1.0, 0.0, 0.0)" width="469.45" xlink:href="#shape1"/>
    </g>
    <g id="shape1" transform="matrix(1.0, 0.0, 0.0, 1.0, 0.0, 0.0)">
      <path d="M469.45 54.1 Q434.6 82.05 340.1 69.55 270.35 60.35 191.3 33.85 149.95 25.0 106.55 30.05 86.55 32.4 58.9 38.15 39.9 42.15 0.0 51.6 89.5 -4.4 168.5 0.35 183.0 1.2 224.75 13.4 L264.0 25.05 307.35 37.45 Q359.7 51.75 395.75 56.45 442.25 62.5 469.45 54.1" fill="#000000" fill-opacity="0.101960786" fill-rule="evenodd" stroke="none"/>
    </g> -->
    <!-- Stars -->
    <g id="sprite8" transform="matrix(1.0, 0.0, 0.0, 1.0, 270.35, -15.85)">
      <use ffdec:characterId="568" height="155.75" transform="matrix(1.0, 0.0, 0.0, 1.0, -270.35, 15.85)" width="415.95" xlink:href="#sprite9"/>
    </g>
    <g id="sprite9" transform="matrix(1.0, 0.0, 0.0, 1.0, 337.2, 8.4)">
      <use ffdec:characterId="567" height="155.75" transform="matrix(1.0, 0.0, 0.0, 1.0, -337.2, -8.4)" width="415.95" xlink:href="#shape10"/>
    </g>
    <g id="shape10" transform="matrix(1.0, 0.0, 0.0, 1.0, 337.2, 8.4)">
      <path d="M22.85 -8.4 Q23.7 -8.25 24.2 -7.6 24.65 -6.95 24.55 -6.15 24.4 -5.35 23.8 -4.8 23.1 -4.35 22.3 -4.45 21.45 -4.6 21.0 -5.2 20.5 -5.9 20.6 -6.7 20.7 -7.55 21.4 -8.0 22.05 -8.5 22.85 -8.4 M71.65 32.85 Q72.1 33.5 72.0 34.35 71.9 35.15 71.25 35.65 L69.75 36.0 68.45 35.2 Q67.95 34.5 68.05 33.7 68.2 32.9 68.85 32.45 69.5 31.9 70.35 32.05 71.15 32.15 71.65 32.85 M39.85 51.6 Q40.6 51.35 41.35 51.8 42.05 52.2 42.3 53.0 42.5 53.8 42.05 54.55 41.65 55.25 40.85 55.45 L39.35 55.25 Q38.6 54.85 38.4 54.05 38.2 53.25 38.6 52.55 39.0 51.8 39.85 51.6 M39.2 94.7 Q39.85 94.2 40.7 94.35 41.5 94.45 42.0 95.15 42.5 95.8 42.35 96.6 42.25 97.4 41.6 97.9 40.9 98.4 40.1 98.3 39.25 98.15 38.8 97.5 38.3 96.8 38.4 96.0 38.55 95.2 39.2 94.7 M76.75 88.15 Q77.55 88.15 78.15 88.75 78.7 89.35 78.75 90.15 78.7 91.0 78.15 91.6 77.55 92.15 76.75 92.15 75.9 92.15 75.3 91.6 74.7 91.0 74.75 90.15 74.7 89.35 75.3 88.75 75.9 88.15 76.75 88.15 M-335.7 -2.15 L-334.2 -1.9 Q-333.5 -1.5 -333.25 -0.7 -333.05 0.1 -333.5 0.8 L-334.7 1.75 -336.2 1.55 Q-336.95 1.1 -337.15 0.3 -337.35 -0.5 -336.95 -1.2 -336.55 -1.95 -335.7 -2.15 M-36.0 38.0 Q-36.85 38.0 -37.45 37.45 -38.05 36.85 -38.0 36.0 -38.05 35.2 -37.45 34.6 -36.85 34.0 -36.0 34.0 -35.2 34.0 -34.6 34.6 -34.05 35.2 -34.0 36.0 -34.05 36.85 -34.6 37.45 -35.2 38.0 -36.0 38.0 M-62.9 91.6 Q-63.5 92.15 -64.3 92.15 -65.15 92.15 -65.75 91.6 -66.35 91.0 -66.3 90.15 -66.35 89.35 -65.75 88.75 -65.15 88.15 -64.3 88.15 -63.5 88.15 -62.9 88.75 -62.35 89.35 -62.3 90.15 -62.35 91.0 -62.9 91.6 M-93.9 4.75 Q-93.35 5.35 -93.3 6.15 -93.35 7.0 -93.9 7.6 -94.5 8.15 -95.3 8.15 -96.15 8.15 -96.75 7.6 -97.35 7.0 -97.3 6.15 -97.35 5.35 -96.75 4.75 -96.15 4.15 -95.3 4.15 -94.5 4.15 -93.9 4.75 M-126.3 59.15 Q-126.35 60.0 -126.9 60.6 -127.5 61.15 -128.3 61.15 -129.15 61.15 -129.75 60.6 -130.35 60.0 -130.3 59.15 -130.35 58.35 -129.75 57.75 -129.15 57.15 -128.3 57.15 -127.5 57.15 -126.9 57.75 -126.35 58.35 -126.3 59.15 M-91.05 79.95 Q-90.5 80.5 -90.5 81.35 -90.5 82.15 -91.05 82.75 -91.65 83.35 -92.5 83.35 -93.3 83.35 -93.9 82.75 -94.5 82.15 -94.5 81.35 -94.5 80.5 -93.9 79.95 -93.3 79.35 -92.5 79.35 -91.65 79.35 -91.05 79.95 M-124.9 143.95 Q-124.3 143.35 -123.5 143.35 -122.65 143.35 -122.05 143.95 -121.5 144.5 -121.5 145.35 -121.5 146.15 -122.05 146.75 -122.65 147.35 -123.5 147.35 -124.3 147.35 -124.9 146.75 -125.5 146.15 -125.5 145.35 -125.5 144.5 -124.9 143.95 M-189.9 35.7 Q-190.5 35.1 -190.5 34.3 -190.5 33.45 -189.9 32.9 -189.3 32.3 -188.5 32.3 -187.65 32.3 -187.05 32.9 -186.5 33.45 -186.5 34.3 -186.5 35.1 -187.05 35.7 -187.65 36.3 -188.5 36.3 -189.3 36.3 -189.9 35.7 M-263.65 14.2 Q-264.05 14.9 -264.85 15.1 L-266.35 14.9 Q-267.1 14.5 -267.3 13.7 -267.5 12.9 -267.1 12.2 -266.7 11.45 -265.85 11.25 -265.1 11.0 -264.35 11.45 -263.65 11.85 -263.45 12.65 -263.25 13.45 -263.65 14.2 M-176.5 114.35 Q-177.3 114.35 -177.9 113.75 -178.5 113.15 -178.5 112.35 -178.5 111.5 -177.9 110.95 -177.3 110.35 -176.5 110.35 -175.65 110.35 -175.05 110.95 -174.5 111.5 -174.5 112.35 -174.5 113.15 -175.05 113.75 -175.65 114.35 -176.5 114.35" fill="#ffffff" fill-rule="evenodd" stroke="none"/>
    </g>
  </defs>
</svg>
