<?xml version="1.0" encoding="UTF-8" standalone="no"?>
<svg xmlns:ffdec="https://www.free-decompiler.com/flash" xmlns:xlink="http://www.w3.org/1999/xlink" ffdec:objectType="frame" height="641.85px" width="960.0px" xmlns="http://www.w3.org/2000/svg">
  <g transform="matrix(1.0, 0.0, 0.0, 1.0, 0.0, 30.95)">
    <use ffdec:characterId="553" height="117.85" transform="matrix(1.1041, 0.0, 0.0, 1.1041, 569.301, 250.067)" width="307.3" xlink:href="#sprite1"/>    
    <use ffdec:characterId="570" height="108.4" transform="matrix(1.0, 0.0, 0.0, 1.0, 569.3, 250.1)" width="333.55" xlink:href="#shape11"/>
  </g>
  <defs>
    <!-- Cloud -->
    <g id="sprite1" transform="matrix(1.0, 0.0, 0.0, 1.0, 153.65, 58.9)">
      <use ffdec:characterId="552" height="117.85" transform="matrix(1.0, 0.0, 0.0, 1.0, -153.65, -58.9)" width="307.3" xlink:href="#shape2"/>
    </g>
    <g id="shape2" transform="matrix(1.0, 0.0, 0.0, 1.0, 153.65, 58.9)">
      <path d="M65.8 -54.6 Q60.95 -53.4 56.5 -49.95 52.6 -46.95 51.0 -44.05 47.55 -38.0 46.5 -32.45 43.6 -35.4 40.35 -35.3 L35.2 -34.75 Q28.75 -33.5 25.35 -29.6 21.4 -25.15 21.0 -23.25 20.65 -21.95 19.2 -12.3 9.2 -19.3 3.85 -19.35 L3.35 -19.3 Q-2.05 -19.0 -5.6 -12.4 -9.2 -5.85 -10.75 4.75 -12.7 -5.45 -15.9 -10.05 -19.15 -14.7 -25.35 -18.25 -31.55 -21.85 -36.5 -22.2 L-39.5 -22.35 -45.1 -21.95 Q-48.85 -21.3 -52.45 -15.3 -54.7 -23.7 -60.25 -24.2 L-62.85 -24.2 Q-67.7 -23.85 -72.05 -20.3 L-77.55 -14.75 Q-81.6 -11.2 -83.0 -4.9 -83.7 -2.0 -83.7 8.1 L-83.65 16.35 Q-91.95 11.8 -97.45 11.4 -103.0 11.05 -116.85 11.5 -130.7 12.0 -142.0 23.7 L-142.05 23.75 Q-145.7 27.5 -147.95 32.1 -149.25 34.7 -124.45 39.95 -99.65 45.2 -46.45 48.0 L25.3 50.2 Q43.85 49.65 46.95 46.8 50.05 43.95 55.3 39.5 61.95 46.5 69.15 48.95 70.5 49.4 78.4 52.75 82.7 54.55 86.5 54.55 94.0 54.55 99.7 51.3 102.6 49.6 104.45 47.65 L110.0 44.05 Q111.75 43.15 114.75 42.75 L129.7 43.4 Q132.95 43.4 141.25 38.9 149.35 34.4 149.4 33.0 148.5 30.5 148.55 27.6 148.5 23.8 148.25 22.45 L146.9 18.95 145.2 15.9 Q142.8 12.0 141.4 12.0 138.55 12.0 135.35 13.7 L131.1 16.0 129.2 17.75 126.45 20.95 Q130.6 10.05 129.7 0.4 129.15 -4.45 127.75 -8.95 124.95 -17.95 120.7 -17.95 L117.1 -17.8 Q110.05 -17.25 105.0 -14.5 104.05 -23.65 103.25 -26.1 102.35 -28.6 101.7 -28.6 L96.2 -28.2 Q91.25 -27.5 86.35 -25.4 85.1 -39.1 83.7 -41.15 83.45 -42.45 83.05 -43.0 80.75 -44.55 78.5 -43.0 79.45 -46.7 77.85 -49.75 76.25 -52.85 74.3 -53.7 72.35 -54.65 65.8 -54.6 M78.75 -55.5 Q82.95 -52.05 82.75 -47.95 85.95 -48.6 88.05 -44.55 90.1 -40.5 90.0 -31.85 L91.6 -32.4 98.25 -32.95 Q104.4 -32.95 106.05 -30.75 107.25 -29.1 108.3 -21.2 109.75 -21.65 109.85 -22.1 L116.0 -22.25 Q122.9 -22.25 125.95 -20.0 128.9 -17.8 131.6 -10.9 133.2 -6.85 133.6 -5.0 133.95 -3.15 133.95 0.3 133.95 4.65 132.9 10.05 L132.9 10.25 Q134.2 10.2 135.65 8.9 137.0 7.65 140.2 7.7 144.95 7.65 148.5 12.55 151.05 16.05 152.1 20.35 152.8 23.6 152.8 26.75 152.8 28.65 153.65 32.9 153.65 40.9 131.55 47.45 129.65 47.8 120.75 47.65 112.7 47.5 111.1 48.3 108.35 49.6 105.75 52.15 98.65 58.95 89.5 58.95 81.8 58.95 69.35 54.0 57.2 49.15 55.7 45.95 54.65 46.75 52.85 48.85 51.4 50.55 49.95 51.35 45.45 53.85 31.15 53.85 L23.05 53.65 Q-88.85 51.85 -120.85 45.7 -152.85 39.55 -153.5 36.5 -154.2 33.4 -151.3 28.85 L-146.05 21.25 Q-141.85 15.3 -131.6 10.8 -121.35 6.25 -109.8 6.05 L-94.35 6.8 -88.45 8.1 Q-88.9 -3.05 -85.6 -10.9 -83.6 -15.8 -78.3 -21.0 -70.2 -29.1 -60.35 -29.1 -55.1 -29.1 -51.75 -23.1 -48.1 -27.5 -38.3 -27.25 -28.55 -27.1 -19.45 -20.55 -10.3 -14.05 -11.05 -9.6 -4.6 -23.95 3.15 -23.95 8.4 -23.95 10.75 -22.65 14.55 -20.4 16.2 -19.9 17.9 -28.55 20.05 -30.6 L22.35 -33.2 Q23.95 -34.9 27.55 -36.65 31.1 -38.45 36.55 -39.6 L44.5 -39.85 46.55 -45.0 Q48.7 -48.8 50.4 -50.45 59.35 -59.35 66.45 -58.9 74.5 -59.0 78.75 -55.5" fill="#5f6465" fill-rule="evenodd" stroke="none"/>
      <path d="M46.5 -32.45 Q47.55 -38.0 51.0 -44.05 52.6 -46.95 56.5 -49.95 60.95 -53.4 65.8 -54.6 77.2 -45.95 75.65 -37.45 84.2 -40.75 82.3 -22.1 L86.35 -25.4 Q91.25 -27.5 96.2 -28.2 104.55 -24.1 97.05 -4.95 100.7 -11.0 105.0 -14.5 110.05 -17.25 117.1 -17.8 128.55 4.4 122.05 25.0 124.6 21.55 126.45 20.95 L129.2 17.75 Q141.5 9.75 144.6 25.2 141.65 30.95 130.35 33.85 113.95 38.0 109.0 26.7 91.7 57.55 59.55 34.9 64.2 27.85 61.55 17.7 59.05 35.3 32.4 40.25 5.7 45.15 -32.1 43.85 -69.9 42.55 -100.85 37.6 -133.75 32.3 -142.0 23.7 -130.7 12.0 -116.85 11.5 -103.0 11.05 -97.45 11.4 -91.95 11.8 -83.65 16.35 L-83.7 8.1 Q-83.7 -2.0 -83.0 -4.9 -81.6 -11.2 -77.55 -14.75 L-72.05 -20.3 Q-67.7 -23.85 -62.85 -24.2 -55.05 -18.25 -57.95 -6.2 L-52.45 -15.3 Q-48.85 -21.3 -45.1 -21.95 L-39.5 -22.35 Q-19.6 -10.15 -21.0 8.75 -15.25 3.55 -10.75 4.75 -6.4 8.65 -4.25 15.65 0.55 6.45 -10.75 4.75 -9.2 -5.85 -5.6 -12.4 -2.05 -19.0 3.35 -19.3 L3.85 -19.35 Q18.35 -9.95 26.05 2.95 26.9 -6.35 19.2 -12.3 20.65 -21.95 21.0 -23.25 21.4 -25.15 25.35 -29.6 28.75 -33.5 35.2 -34.75 47.1 -29.15 48.95 -14.2 51.15 -24.9 46.5 -32.45 M81.7 7.3 Q82.6 10.05 82.9 13.5 83.9 9.75 84.05 6.75 90.8 5.75 96.2 13.35 92.75 0.65 84.05 4.75 83.4 -8.2 64.05 -3.8 77.35 -4.45 81.35 6.35 L81.7 7.3 M85.45 16.25 L85.4 16.25 85.35 16.3 85.45 16.25" fill="#717171" fill-rule="evenodd" stroke="none"/>
      <path d="M46.5 -32.45 Q51.15 -24.9 48.95 -14.2 47.1 -29.15 35.2 -34.75 L40.35 -35.3 Q43.6 -35.4 46.5 -32.45 M19.2 -12.3 Q26.9 -6.35 26.05 2.95 18.35 -9.95 3.85 -19.35 9.2 -19.3 19.2 -12.3 M-10.75 4.75 Q0.55 6.45 -4.25 15.65 -6.4 8.65 -10.75 4.75 -15.25 3.55 -21.0 8.75 -19.6 -10.15 -39.5 -22.35 L-36.5 -22.2 Q-31.55 -21.85 -25.35 -18.25 -19.15 -14.7 -15.9 -10.05 -12.7 -5.45 -10.75 4.75 M-52.45 -15.3 L-57.95 -6.2 Q-55.05 -18.25 -62.85 -24.2 L-60.25 -24.2 Q-54.7 -23.7 -52.45 -15.3 M-142.0 23.7 Q-133.75 32.3 -100.85 37.6 -69.9 42.55 -32.1 43.85 5.7 45.15 32.4 40.25 59.05 35.3 61.55 17.7 64.2 27.85 59.55 34.9 91.7 57.55 109.0 26.7 113.95 38.0 130.35 33.85 141.65 30.95 144.6 25.2 141.5 9.75 129.2 17.75 L131.1 16.0 135.35 13.7 Q138.55 12.0 141.4 12.0 142.8 12.0 145.2 15.9 L146.9 18.95 148.25 22.45 Q148.5 23.8 148.55 27.6 148.5 30.5 149.4 33.0 149.35 34.4 141.25 38.9 132.95 43.4 129.7 43.4 L114.75 42.75 Q111.75 43.15 110.0 44.05 L104.45 47.65 Q102.6 49.6 99.7 51.3 94.0 54.55 86.5 54.55 82.7 54.55 78.4 52.75 70.5 49.4 69.15 48.95 61.95 46.5 55.3 39.5 50.05 43.95 46.95 46.8 43.85 49.65 25.3 50.2 L-46.45 48.0 Q-99.65 45.2 -124.45 39.95 -149.25 34.7 -147.95 32.1 -145.7 27.5 -142.05 23.75 L-142.0 23.7 M126.45 20.95 Q124.6 21.55 122.05 25.0 128.55 4.4 117.1 -17.8 L120.7 -17.95 Q124.95 -17.95 127.75 -8.95 129.15 -4.45 129.7 0.4 130.6 10.05 126.45 20.95 M105.0 -14.5 Q100.7 -11.0 97.05 -4.95 104.55 -24.1 96.2 -28.2 L101.7 -28.6 Q102.35 -28.6 103.25 -26.1 104.05 -23.65 105.0 -14.5 M86.35 -25.4 L82.3 -22.1 Q84.2 -40.75 75.65 -37.45 77.2 -45.95 65.8 -54.6 72.35 -54.65 74.3 -53.7 76.25 -52.85 77.85 -49.75 79.45 -46.7 78.5 -43.0 80.75 -44.55 83.05 -43.0 83.45 -42.45 83.7 -41.15 85.1 -39.1 86.35 -25.4 M85.45 16.25 L85.35 16.3 85.4 16.25 85.45 16.25 M81.7 7.3 L81.35 6.35 Q77.35 -4.45 64.05 -3.8 83.4 -8.2 84.05 4.75 92.75 0.65 96.2 13.35 90.8 5.75 84.05 6.75 83.9 9.75 82.9 13.5 82.6 10.05 81.7 7.3" fill="#6a6c71" fill-rule="evenodd" stroke="none"/>
    </g>
    <!-- Cloud highlight -->
    <g id="shape11" transform="matrix(1.0, 0.0, 0.0, 1.0, -569.3, -250.1)">
      <path d="M766.85 286.1 Q764.45 288.35 762.6 297.9 760.8 297.35 756.6 294.85 754.0 293.4 748.2 293.4 739.6 293.4 732.5 309.25 733.1 305.8 728.3 301.25 734.75 288.65 742.4 288.65 748.2 288.65 750.8 290.1 755.0 292.6 756.8 293.15 758.65 283.6 761.05 281.35 L763.6 278.45 Q765.35 276.55 769.35 274.65 773.3 272.65 779.25 271.35 L788.05 271.1 790.3 265.45 Q792.7 261.2 794.55 259.4 804.45 249.6 812.3 250.1 821.2 249.95 825.85 253.8 827.5 255.15 828.6 256.65 824.4 254.75 818.1 254.85 810.25 254.35 800.35 264.15 798.5 265.95 796.1 270.2 L793.85 275.85 785.05 276.1 Q779.1 277.4 775.15 279.4 771.15 281.3 769.4 283.2 L766.85 286.1 M863.35 290.55 L867.0 290.55 Q874.6 290.55 878.0 293.0 879.5 294.1 880.95 296.35 877.75 295.3 872.8 295.3 866.6 295.3 866.05 295.45 865.9 295.95 864.3 296.45 L863.35 290.55 M844.1 284.7 L843.9 278.85 847.4 278.75 Q854.2 278.7 856.05 281.15 856.55 281.85 857.05 283.75 L853.2 283.5 845.9 284.1 844.1 284.7 M836.55 266.85 L836.1 266.95 836.1 265.85 836.15 265.95 836.55 266.85 M687.55 294.35 Q685.4 290.4 682.45 288.85 686.7 284.8 696.6 285.0 707.4 285.2 717.45 292.4 720.85 294.8 723.0 296.95 713.05 289.95 702.4 289.75 691.6 289.5 687.55 294.35 M680.9 288.15 L678.1 287.75 Q667.2 287.75 658.25 296.65 652.45 302.4 650.25 307.85 646.6 316.45 647.1 328.8 L640.55 327.35 623.5 326.55 Q610.75 326.75 599.45 331.75 588.1 336.75 583.45 343.35 L577.7 351.7 Q575.2 355.55 575.1 358.5 569.7 356.7 569.45 355.4 568.65 351.95 571.9 346.95 L577.65 338.6 Q582.3 332.0 593.65 327.0 604.95 322.0 617.7 321.8 L634.75 322.6 641.3 324.05 Q640.8 311.7 644.45 303.1 646.65 297.65 652.45 291.9 661.4 283.0 672.3 283.0 677.4 282.95 680.9 288.15 M899.55 328.35 Q896.0 328.3 894.5 329.7 892.9 331.1 891.45 331.15 L891.45 330.95 Q892.25 327.05 892.5 323.65 L893.75 323.6 Q898.95 323.55 902.85 328.9 901.25 328.3 899.55 328.35" fill="#b6bcc3" fill-opacity="0.49803922" fill-rule="evenodd" stroke="none"/>
    </g>
  </defs>
</svg>
