<?xml version="1.0" encoding="UTF-8" standalone="no"?>
<svg xmlns:ffdec="https://www.free-decompiler.com/flash" xmlns:xlink="http://www.w3.org/1999/xlink" ffdec:objectType="frame" height="641.85px" width="960.0px" xmlns="http://www.w3.org/2000/svg">
  <g transform="matrix(1.0, 0.0, 0.0, 1.0, 0.0, 30.95)">
    <use ffdec:characterId="536" height="96.0" transform="matrix(1.1477, 0.0, 0.0, 1.1477, 18.0109, 288.0109)" width="96.0" xlink:href="#sprite10"/>
  </g>
  <defs>
    <!-- Moon -->
    <g id="sprite10" transform="matrix(1.0, 0.0, 0.0, 1.0, 48.0, 48.0)">
      <use ffdec:characterId="535" height="96.0" transform="matrix(1.0, 0.0, 0.0, 1.0, -48.0, -48.0)" width="96.0" xlink:href="#shape12"/>
    </g>
    <g id="shape12" transform="matrix(1.0, 0.0, 0.0, 1.0, 48.0, 48.0)">
      <path d="M47.3 -8.7 Q48.0 -4.5 48.0 0.0 48.0 19.9 33.95 33.95 19.9 48.0 0.0 48.0 -19.9 48.0 -33.95 33.95 -48.0 19.9 -48.0 0.0 -48.0 -19.9 -33.95 -33.95 -19.9 -48.0 0.0 -48.0 L10.3 -46.95 Q4.35 -45.7 -0.6 -42.1 L-0.85 -42.35 Q-2.0 -43.5 -3.65 -43.5 -5.3 -43.5 -6.45 -42.35 -7.6 -41.2 -7.6 -39.55 -7.6 -37.9 -6.45 -36.75 L-6.4 -36.7 Q-12.95 -29.15 -13.65 -19.15 -14.8 -19.75 -16.25 -19.75 -17.8 -19.75 -19.1 -19.05 -20.1 -20.0 -21.5 -20.0 -22.95 -20.0 -24.0 -19.0 -25.0 -17.95 -25.0 -16.5 -25.0 -15.05 -24.0 -14.05 -23.1 -13.15 -21.9 -13.0 -21.65 -11.25 -20.35 -9.95 -18.65 -8.25 -16.25 -8.25 -14.35 -8.25 -12.9 -9.3 -11.0 -1.1 -4.65 5.25 L-2.65 7.1 -2.75 7.1 Q-4.25 7.1 -5.35 8.15 -6.4 9.25 -6.4 10.75 -6.4 12.25 -5.35 13.3 -4.25 14.4 -2.75 14.4 -1.25 14.4 -0.2 13.3 0.9 12.25 0.9 10.75 L0.75 9.6 Q8.0 14.3 17.25 14.3 24.65 14.3 30.8 11.3 L31.45 12.1 Q32.65 13.3 34.35 13.3 36.05 13.3 37.25 12.1 38.45 10.9 38.45 9.2 38.45 7.75 37.6 6.7 L39.2 5.25 Q45.3 -0.9 47.3 -8.7 M-18.5 10.25 Q-18.5 9.75 -18.9 9.35 -19.25 9.0 -19.75 9.0 -20.25 9.0 -20.65 9.35 L-21.0 10.25 -20.65 11.1 Q-20.25 11.5 -19.75 11.5 -19.25 11.5 -18.9 11.1 -18.5 10.75 -18.5 10.25 M-23.75 -3.0 Q-23.0 -3.7 -23.0 -4.75 -23.0 -5.8 -23.75 -6.55 -24.45 -7.25 -25.5 -7.25 -26.55 -7.25 -27.3 -6.55 -28.0 -5.8 -28.0 -4.75 -28.0 -3.7 -27.3 -3.0 -26.55 -2.25 -25.5 -2.25 -24.45 -2.25 -23.75 -3.0 M-18.9 -35.4 Q-19.6 -34.7 -19.6 -33.75 -19.6 -32.8 -18.9 -32.1 -18.2 -31.4 -17.25 -31.4 -16.3 -31.4 -15.6 -32.1 -14.9 -32.8 -14.9 -33.75 -14.9 -34.7 -15.6 -35.4 -16.3 -36.1 -17.25 -36.1 -18.2 -36.1 -18.9 -35.4 M2.5 30.0 Q4.25 28.25 4.25 25.75 4.25 23.25 2.5 21.5 0.75 19.75 -1.75 19.75 -4.25 19.75 -6.0 21.5 -7.75 23.25 -7.75 25.75 -7.75 28.25 -6.0 30.0 -4.25 31.75 -1.75 31.75 0.75 31.75 2.5 30.0 M16.05 23.0 Q15.45 23.65 15.45 24.5 15.45 25.35 16.05 25.95 16.7 26.6 17.55 26.6 18.4 26.6 19.0 25.95 19.65 25.35 19.65 24.5 19.65 23.65 19.0 23.0 18.4 22.4 17.55 22.4 16.7 22.4 16.05 23.0" fill="#8e8e8e" fill-rule="evenodd" stroke="none"/>
      <path d="M10.3 -46.95 Q23.7 -44.2 33.95 -33.95 44.8 -23.1 47.3 -8.7 45.3 -0.9 39.2 5.25 L37.6 6.7 Q38.45 7.75 38.45 9.2 38.45 10.9 37.25 12.1 36.05 13.3 34.35 13.3 32.65 13.3 31.45 12.1 L30.8 11.3 Q24.65 14.3 17.25 14.3 8.0 14.3 0.75 9.6 L0.9 10.75 Q0.9 12.25 -0.2 13.3 -1.25 14.4 -2.75 14.4 -4.25 14.4 -5.35 13.3 -6.4 12.25 -6.4 10.75 -6.4 9.25 -5.35 8.15 -4.25 7.1 -2.75 7.1 L-2.65 7.1 -4.65 5.25 Q-11.0 -1.1 -12.9 -9.3 -14.35 -8.25 -16.25 -8.25 -18.65 -8.25 -20.35 -9.95 -21.65 -11.25 -21.9 -13.0 -23.1 -13.15 -24.0 -14.05 -25.0 -15.05 -25.0 -16.5 -25.0 -17.95 -24.0 -19.0 -22.95 -20.0 -21.5 -20.0 -20.1 -20.0 -19.1 -19.05 -17.8 -19.75 -16.25 -19.75 -14.8 -19.75 -13.65 -19.15 -12.95 -29.15 -6.4 -36.7 L-6.45 -36.75 Q-7.6 -37.9 -7.6 -39.55 -7.6 -41.2 -6.45 -42.35 -5.3 -43.5 -3.65 -43.5 -2.0 -43.5 -0.85 -42.35 L-0.6 -42.1 Q4.35 -45.7 10.3 -46.95 M16.05 23.0 Q16.7 22.4 17.55 22.4 18.4 22.4 19.0 23.0 19.65 23.65 19.65 24.5 19.65 25.35 19.0 25.95 18.4 26.6 17.55 26.6 16.7 26.6 16.05 25.95 15.45 25.35 15.45 24.5 15.45 23.65 16.05 23.0 M2.5 30.0 Q0.75 31.75 -1.75 31.75 -4.25 31.75 -6.0 30.0 -7.75 28.25 -7.75 25.75 -7.75 23.25 -6.0 21.5 -4.25 19.75 -1.75 19.75 0.75 19.75 2.5 21.5 4.25 23.25 4.25 25.75 4.25 28.25 2.5 30.0 M-18.9 -35.4 Q-18.2 -36.1 -17.25 -36.1 -16.3 -36.1 -15.6 -35.4 -14.9 -34.7 -14.9 -33.75 -14.9 -32.8 -15.6 -32.1 -16.3 -31.4 -17.25 -31.4 -18.2 -31.4 -18.9 -32.1 -19.6 -32.8 -19.6 -33.75 -19.6 -34.7 -18.9 -35.4 M-23.75 -3.0 Q-24.45 -2.25 -25.5 -2.25 -26.55 -2.25 -27.3 -3.0 -28.0 -3.7 -28.0 -4.75 -28.0 -5.8 -27.3 -6.55 -26.55 -7.25 -25.5 -7.25 -24.45 -7.25 -23.75 -6.55 -23.0 -5.8 -23.0 -4.75 -23.0 -3.7 -23.75 -3.0 M-18.5 10.25 Q-18.5 10.75 -18.9 11.1 -19.25 11.5 -19.75 11.5 -20.25 11.5 -20.65 11.1 L-21.0 10.25 -20.65 9.35 Q-20.25 9.0 -19.75 9.0 -19.25 9.0 -18.9 9.35 -18.5 9.75 -18.5 10.25" fill="#696969" fill-rule="evenodd" stroke="none"/>
    </g>
  </defs>
</svg>
