<?xml version="1.0" encoding="UTF-8" standalone="no"?>
<svg xmlns:ffdec="https://www.free-decompiler.com/flash" xmlns:xlink="http://www.w3.org/1999/xlink" ffdec:objectType="frame" height="641.85px" width="960.0px" xmlns="http://www.w3.org/2000/svg">
  <g transform="matrix(1.0, 0.0, 0.0, 1.0, 0.0, 30.95)">
    <use ffdec:characterId="557" height="230.1" transform="matrix(1.5968, 0.0, 0.0, 1.5968, 452.2298, 243.4682)" width="51.3" xlink:href="#sprite2"/>
    <use ffdec:characterId="566" height="401.95" transform="matrix(1.5968, 0.0, 0.0, 1.5968, 98.3378, -30.95)" width="181.55" xlink:href="#sprite4"/>
  </g>
  <defs>
    <!-- Right Building -->
    <g id="sprite2" transform="matrix(1.0, 0.0, 0.0, 1.0, 22.15, -171.85)">
      <use ffdec:characterId="554" height="230.1" transform="matrix(1.0, 0.0, 0.0, 1.0, -2.9, 171.85)" width="12.7" xlink:href="#shape3"/>
      <use ffdec:characterId="556" height="20.1" transform="matrix(1.0, 0.0, 0.0, 1.0, -22.15, 250.5)" width="51.3" xlink:href="#sprite3"/>
      <use ffdec:characterId="556" height="20.1" transform="matrix(1.0, 0.0, 0.0, 1.0, -22.15, 314.35)" width="51.3" xlink:href="#sprite3"/>
      <use ffdec:characterId="556" height="20.1" transform="matrix(1.0, 0.0, 0.0, 1.0, -22.15, 213.55)" width="51.3" xlink:href="#sprite3"/>
    </g>
    <g id="shape3" transform="matrix(1.0, 0.0, 0.0, 1.0, 2.9, -171.85)">
      <path d="M7.0 198.9 L7.0 401.95 0.0 401.95 0.0 198.9 7.0 198.9" fill="#000000" fill-opacity="0.16862746" fill-rule="evenodd" stroke="none"/>
      <path d="M0.0 198.9 L-2.9 198.9 -2.9 194.05 -0.1 194.05 3.4 171.85 6.9 194.05 9.8 194.05 9.8 198.9 7.0 198.9 0.0 198.9" fill="#000000" fill-opacity="0.18039216" fill-rule="evenodd" stroke="none"/>
    </g>
    <!-- Platforms -->
    <g id="sprite3" transform="matrix(1.0, 0.0, 0.0, 1.0, 25.65, 20.1)">
      <use ffdec:characterId="555" height="20.1" transform="matrix(1.0, 0.0, 0.0, 1.0, -25.65, -20.1)" width="51.3" xlink:href="#shape4"/>
    </g>
    <g id="shape4" transform="matrix(1.0, 0.0, 0.0, 1.0, 25.65, 20.1)">
      <path d="M3.5 -20.1 L25.65 -20.1 25.65 -13.85 17.15 -13.85 3.5 -0.25 3.5 -4.35 7.9 -8.75 3.5 -8.75 3.5 -11.5 10.65 -11.5 13.0 -13.85 3.5 -13.85 3.5 -20.1 M-25.65 -13.85 L-25.65 -20.1 -3.5 -20.1 -3.5 -13.85 -12.95 -13.85 -10.6 -11.5 -3.5 -11.5 -3.5 -8.75 -7.85 -8.75 -3.5 -4.4 -3.5 0.0 -17.35 -13.85 -25.65 -13.85" fill="#000000" fill-opacity="0.18039216" fill-rule="evenodd" stroke="none"/>
    </g>
    <!-- Left Building -->
    <g id="sprite4" transform="matrix(1.0, 0.0, 0.0, 1.0, 56.4, 0.0)">
      <use ffdec:characterId="558" height="401.95" transform="matrix(1.0, 0.0, 0.0, 1.0, 0.0, 0.0)" width="7.0" xlink:href="#shape5"/>
      <use ffdec:characterId="563" height="128.15" transform="matrix(1.0, 0.0, 0.0, 1.0, 7.0, 115.85)" width="118.15" xlink:href="#sprite5"/>
      <use ffdec:characterId="556" height="20.1" transform="matrix(1.0, 0.0, 0.0, 1.0, -22.15, 291.2)" width="51.3" xlink:href="#sprite3"/>
      <use ffdec:characterId="556" height="20.1" transform="matrix(1.0, 0.0, 0.0, 1.0, -22.15, 336.3)" width="51.3" xlink:href="#sprite3"/>
      <use ffdec:characterId="556" height="20.1" transform="matrix(1.0, 0.0, 0.0, 1.0, -22.15, 64.5)" width="51.3" xlink:href="#sprite3"/>
      <use ffdec:characterId="565" height="148.3" transform="matrix(-1.0, 0.0, 0.0, 1.0, 0.0, 95.7)" width="56.4" xlink:href="#sprite7"/>
    </g>
    <g id="shape5" transform="matrix(1.0, 0.0, 0.0, 1.0, 0.0, 0.0)">
      <path d="M7.0 0.0 L7.0 401.95 0.0 401.95 0.0 0.0 7.0 0.0" fill="#000000" fill-opacity="0.16862746" fill-rule="evenodd" stroke="none"/>
    </g>
    <g id="sprite5" transform="matrix(1.0, 0.0, 0.0, 1.0, -41.3, 313.45)">
      <use ffdec:characterId="559" height="124.0" transform="matrix(1.0, 0.0, 0.0, 1.0, 41.3, -309.3)" width="112.75" xlink:href="#shape6"/>
      <use ffdec:characterId="561" height="21.6" transform="matrix(1.0, 0.0, 0.0, 1.0, 137.85, -313.45)" width="21.6" xlink:href="#sprite6"/>
      <use ffdec:characterId="562" height="5.5" transform="matrix(1.0, 0.0, 0.0, 1.0, 146.0, -305.15)" width="5.55" xlink:href="#shape8"/>
    </g>
    <g id="shape6" transform="matrix(1.0, 0.0, 0.0, 1.0, -41.3, 309.3)">
      <path d="M150.3 -302.5 L150.3 -276.1 154.05 -276.1 154.05 -241.65 137.5 -241.65 137.5 -199.45 148.45 -199.45 148.45 -196.6 120.25 -196.6 120.25 -199.45 131.5 -199.45 131.5 -241.65 97.7 -241.65 41.3 -185.3 41.3 -196.6 72.05 -227.3 41.3 -227.3 41.3 -230.4 75.15 -230.4 86.4 -241.65 41.3 -241.65 41.3 -309.3 63.85 -309.3 63.85 -272.95 142.75 -272.95 142.75 -276.1 147.2 -276.1 147.2 -302.5 150.3 -302.5 M79.65 -268.7 L70.4 -268.7 70.4 -267.15 79.65 -267.15 79.65 -268.7 M63.85 -265.1 L63.85 -252.95 68.2 -252.95 68.2 -265.1 63.85 -265.1 M68.2 -268.7 L63.85 -268.7 63.85 -267.15 68.2 -267.15 68.2 -268.7 M79.65 -265.1 L70.4 -265.1 70.4 -252.95 79.65 -252.95 79.65 -265.1 M138.4 -267.15 L142.75 -267.15 142.75 -268.7 138.4 -268.7 138.4 -267.15 M136.2 -268.7 L127.1 -268.7 127.1 -267.15 136.2 -267.15 136.2 -268.7 M124.9 -268.7 L115.65 -268.7 115.65 -267.15 124.9 -267.15 124.9 -268.7 M124.9 -265.1 L115.65 -265.1 115.65 -252.95 124.9 -252.95 124.9 -265.1 M138.4 -252.95 L142.75 -252.95 142.75 -265.1 138.4 -265.1 138.4 -252.95 M136.2 -265.1 L127.1 -265.1 127.1 -252.95 136.2 -252.95 136.2 -265.1 M93.15 -267.15 L102.4 -267.15 102.4 -268.7 93.15 -268.7 93.15 -267.15 M90.95 -267.15 L90.95 -268.7 81.85 -268.7 81.85 -267.15 90.95 -267.15 M81.85 -265.1 L81.85 -252.95 90.95 -252.95 90.95 -265.1 81.85 -265.1 M93.15 -252.95 L102.4 -252.95 102.4 -265.1 93.15 -265.1 93.15 -252.95 M113.45 -268.7 L104.6 -268.7 104.6 -267.15 113.45 -267.15 113.45 -268.7 M104.6 -252.95 L113.45 -252.95 113.45 -265.1 104.6 -265.1 104.6 -252.95" fill="#000000" fill-opacity="0.18039216" fill-rule="evenodd" stroke="none"/>
    </g>
    <g id="sprite6" transform="matrix(1.0, 0.0, 0.0, 1.0, 0.0, 0.0)">
      <use ffdec:characterId="560" height="21.6" transform="matrix(1.0, 0.0, 0.0, 1.0, 0.0, 0.0)" width="21.6" xlink:href="#shape7"/>
    </g>
    <g id="shape7" transform="matrix(1.0, 0.0, 0.0, 1.0, 0.0, 0.0)">
      <path d="M18.45 3.15 Q21.6 6.3 21.6 10.8 21.6 15.25 18.45 18.4 15.3 21.6 10.8 21.6 6.35 21.6 3.15 18.4 0.0 15.25 0.0 10.75 0.0 6.3 3.15 3.15 6.35 0.0 10.8 0.0 15.3 0.0 18.45 3.15" fill="url(#gradient1)" fill-rule="evenodd" stroke="none"/>
    </g>
    <radialGradient cx="0" cy="0" gradientTransform="matrix(0.0133, 0.0, 0.0, 0.0133, 10.8, 10.8)" gradientUnits="userSpaceOnUse" id="gradient1" r="819.2" spreadMethod="pad">
      <stop offset="0.0" stop-color="#00ff00"/>
      <stop offset="1.0" stop-color="#00ff00" stop-opacity="0.0"/>
    </radialGradient>
    <g id="shape8" transform="matrix(1.0, 0.0, 0.0, 1.0, -146.0, 305.15)">
      <path d="M148.75 -299.65 Q147.65 -299.65 146.8 -300.45 146.0 -301.25 146.0 -302.4 146.0 -303.55 146.8 -304.35 147.65 -305.15 148.75 -305.15 149.9 -305.15 150.7 -304.35 151.55 -303.55 151.55 -302.4 151.55 -301.25 150.7 -300.45 149.9 -299.65 148.75 -299.65" fill="#00ff00" fill-rule="evenodd" stroke="none"/>
    </g>
    <g id="sprite7" transform="matrix(1.0, 0.0, 0.0, 1.0, -41.3, 333.6)">
      <use ffdec:characterId="564" height="148.3" transform="matrix(1.0, 0.0, 0.0, 1.0, 41.3, -333.6)" width="56.4" xlink:href="#shape9"/>
    </g>
    <g id="shape9" transform="matrix(1.0, 0.0, 0.0, 1.0, -41.3, 333.6)">
      <path d="M58.45 -333.6 L59.15 -333.3 59.45 -332.6 59.15 -331.9 59.0 -331.75 Q59.6 -331.35 60.0 -329.25 L61.1 -325.8 Q62.2 -322.3 64.4 -317.45 L64.4 -316.95 63.5 -317.95 63.45 -315.55 62.8 -316.1 62.8 -314.9 62.05 -315.8 61.7 -312.5 Q61.3 -312.85 60.4 -315.7 59.8 -316.9 59.7 -318.35 59.65 -319.15 58.6 -321.3 L58.6 -309.3 63.85 -309.3 78.5 -294.7 83.25 -294.7 83.25 -290.75 63.85 -290.75 63.85 -252.95 97.7 -252.95 97.7 -241.65 41.3 -185.3 41.3 -196.6 72.05 -227.3 41.3 -227.3 41.3 -230.4 75.15 -230.4 86.4 -241.65 41.3 -241.65 41.3 -309.3 57.85 -309.3 57.85 -331.8 57.9 -331.8 57.75 -331.9 Q57.45 -332.2 57.45 -332.6 57.45 -333.0 57.75 -333.3 58.05 -333.6 58.45 -333.6" fill="#000000" fill-opacity="0.18039216" fill-rule="evenodd" stroke="none"/>
    </g>
  </defs>
</svg>
