<?xml version="1.0" encoding="UTF-8" standalone="no"?>
<svg xmlns:ffdec="https://www.free-decompiler.com/flash" xmlns:xlink="http://www.w3.org/1999/xlink" ffdec:objectType="frame" viewBox="0 0 160.65 178.1" xmlns="http://www.w3.org/2000/svg">
  <g transform="matrix(1.0, 0.0, 0.0, 1.0, 80.3, 89.05)">
    <use ffdec:characterId="333" height="178.1" transform="matrix(1.0, 0.0, 0.0, 1.0, -80.3, -89.05)" width="160.65" xlink:href="#shape0"/>
  </g>
  <defs>
    <g id="shape0" transform="matrix(1.0, 0.0, 0.0, 1.0, 80.3, 89.05)">
      <path d="M69.7 78.5 L69.7 -78.5 15.55 -78.5 -60.55 -78.5 -65.65 -79.25 -57.35 -83.55 17.15 -83.5 74.45 -83.45 74.45 72.1 72.4 74.95 69.7 78.5" fill="#ffffff" fill-rule="evenodd" stroke="none"/>
      <path d="M-65.65 -79.25 L-70.6 -78.5 -58.85 -85.05 Q-54.1 -82.6 -47.8 -85.05 L17.65 -85.05 17.15 -83.5 -57.35 -83.55 -65.65 -79.25 M-60.55 -74.5 L14.25 -74.5 Q17.4 -30.0 -9.1 -2.15 -37.3 37.45 -37.3 85.05 L-60.55 85.05 -60.55 -74.5" fill="#24b814" fill-rule="evenodd" stroke="none"/>
      <path d="M-70.55 83.4 L-70.55 -75.9 Q-65.65 -76.35 -60.55 -74.5 L-60.55 85.05 Q-66.85 83.1 -70.55 83.4" fill="#2de418" fill-rule="evenodd" stroke="none"/>
      <path d="M-70.55 83.4 Q-73.4 83.55 -76.3 85.05 L-76.3 -74.5 Q-73.45 -75.6 -70.55 -75.9 L-70.55 83.4" fill="#1e9a10" fill-rule="evenodd" stroke="none"/>
      <path d="M14.25 -74.5 L65.7 -74.5 65.7 85.05 -37.3 85.05 Q-37.3 37.45 -9.1 -2.15 17.4 -30.0 14.25 -74.5 M17.15 -83.5 L17.65 -85.05 76.35 -85.05 76.35 74.5 72.7 74.5 72.4 74.95 74.45 72.1 74.45 -83.45 17.15 -83.5" fill="#139cb9" fill-rule="evenodd" stroke="none"/>
      <path d="M15.55 -78.5 L14.25 -74.5 -60.55 -74.5 Q-65.65 -76.35 -70.55 -75.9 -73.45 -75.6 -76.3 -74.5 L-76.3 85.05 Q-73.4 83.55 -70.55 83.4 -66.85 83.1 -60.55 85.05 L-37.3 85.05 -38.6 89.05 -61.0 89.05 Q-64.4 86.6 -69.5 86.55 -74.65 86.5 -80.3 89.05 L-80.3 -77.1 -59.9 -89.05 Q-54.15 -84.85 -47.8 -89.05 L18.95 -89.05 17.65 -85.05 -47.8 -85.05 Q-54.1 -82.6 -58.85 -85.05 L-70.6 -78.5 -65.65 -79.25 -60.55 -78.5 15.55 -78.5" fill="#11580a" fill-rule="evenodd" stroke="none"/>
      <path d="M14.25 -74.5 L15.55 -78.5 69.7 -78.5 69.7 78.5 69.7 89.05 -38.6 89.05 -37.3 85.05 65.7 85.05 65.7 -74.5 14.25 -74.5 M17.65 -85.05 L18.95 -89.05 80.35 -89.05 80.35 78.5 69.95 78.5 69.7 78.5 72.4 74.95 72.7 74.5 76.35 74.5 76.35 -85.05 17.65 -85.05" fill="#094e59" fill-rule="evenodd" stroke="none"/>
    </g>
  </defs>
</svg>
