<?xml version="1.0" encoding="UTF-8" standalone="no"?>
<svg xmlns:ffdec="https://www.free-decompiler.com/flash" xmlns:xlink="http://www.w3.org/1999/xlink" ffdec:objectType="frame" viewBox="0 0 195.45 197.4" xmlns="http://www.w3.org/2000/svg">
  <g transform="matrix(1.0, 0.0, 0.0, 1.0, 97.7, 98.7)">
    <use ffdec:characterId="366" height="197.4" transform="matrix(1.0, 0.0, 0.0, 1.0, -97.7, -98.7)" width="195.45" xlink:href="#shape0"/>
  </g>
  <defs>
    <g id="shape0" transform="matrix(1.0, 0.0, 0.0, 1.0, 97.7, 98.7)">
      <path d="M1.0 -98.7 Q41.9 -98.7 69.35 -71.6 96.8 -44.5 97.7 -2.0 98.6 40.5 70.25 69.6 41.9 98.7 1.0 98.7 -39.9 98.7 -68.8 69.8 -97.7 40.9 -97.7 0.0 -97.7 -40.9 -68.8 -69.8 -39.9 -98.7 1.0 -98.7 M0.95 -94.25 Q-38.1 -94.25 -65.7 -66.9 -93.3 -39.5 -93.3 -0.8 -93.3 37.9 -65.7 65.25 -38.1 92.65 0.95 92.65 40.0 92.65 67.1 65.1 94.15 37.55 93.3 -2.65 92.45 -42.95 66.25 -68.6 40.0 -94.25 0.95 -94.25" fill="#64a9e1" fill-opacity="0.7529412" fill-rule="evenodd" stroke="none"/>
      <path d="M0.95 -94.25 Q40.0 -94.25 66.25 -68.6 92.45 -42.95 93.3 -2.65 94.15 37.55 67.1 65.1 40.0 92.65 0.95 92.65 -38.1 92.65 -65.7 65.25 -93.3 37.9 -93.3 -0.8 -93.3 -39.5 -65.7 -66.9 -38.1 -94.25 0.95 -94.25" fill="url(#gradient0)" fill-rule="evenodd" stroke="none"/>
      <path d="M71.4 -55.2 Q76.35 -46.8 78.1 -38.85 79.95 -30.3 77.45 -24.75 74.7 -18.55 66.8 -17.4 59.9 -16.35 55.1 -20.5 51.4 -23.65 47.6 -31.5 L40.7 -46.5 Q36.1 -55.75 30.8 -61.4 26.05 -66.5 18.9 -71.3 L8.25 -77.95 Q3.35 -80.95 2.65 -82.55 1.75 -84.6 6.0 -86.4 16.2 -90.75 30.95 -86.3 46.4 -81.65 60.2 -69.2 66.5 -63.5 71.4 -55.2" fill="#ffffff" fill-rule="evenodd" stroke="none"/>
    </g>
    <radialGradient cx="0" cy="0" fx="460.8" fy="0" gradientTransform="matrix(0.0, 0.1173, -0.1183, 0.0, -1.0, 2.15)" gradientUnits="userSpaceOnUse" id="gradient0" r="819.2" spreadMethod="pad">
      <stop offset="0.0" stop-color="#eaf2ff" stop-opacity="0.7529412"/>
      <stop offset="1.0" stop-color="#a8d8ff" stop-opacity="0.7529412"/>
    </radialGradient>
  </defs>
</svg>
