<?xml version="1.0" encoding="UTF-8" standalone="no"?>
<svg xmlns:ffdec="https://www.free-decompiler.com/flash" xmlns:xlink="http://www.w3.org/1999/xlink" ffdec:objectType="frame" viewBox="0 0 128.4 128.4" xmlns="http://www.w3.org/2000/svg">
  <g transform="matrix(1.0, 0.0, 0.0, 1.0, 64.2, 64.2)">
    <use ffdec:characterId="344" height="128.4" transform="matrix(1.0, 0.0, 0.0, 1.0, -64.2, -64.2)" width="128.4" xlink:href="#shape0"/>
  </g>
  <defs>
    <g id="shape0" transform="matrix(1.0, 0.0, 0.0, 1.0, 64.2, 64.2)">
      <path d="M36.1 -61.55 Q49.25 -59.95 54.75 -54.35 60.2 -48.9 61.7 -35.75 62.7 -26.75 62.7 0.0 62.7 27.25 61.7 36.3 60.2 49.45 54.75 54.85 49.3 60.25 36.1 61.75 27.3 62.7 0.0 62.7 -27.1 62.7 -35.85 61.75 -49.05 60.25 -54.5 54.85 -60.0 49.45 -61.55 36.3 -62.7 26.95 -62.7 0.0 -62.7 -27.15 -61.7 -36.1 -60.2 -49.3 -54.7 -54.7 -49.3 -60.2 -36.1 -61.7 -27.15 -62.7 0.0 -62.7 L36.1 -61.55" fill="url(#gradient0)" fill-rule="evenodd" stroke="none"/>
      <path d="M36.1 -61.55 Q49.25 -59.95 54.75 -54.35 60.2 -48.9 61.7 -35.75 62.7 -26.75 62.7 0.0 62.7 27.25 61.7 36.3 60.2 49.45 54.75 54.85 49.3 60.25 36.1 61.75 27.3 62.7 0.0 62.7 -27.1 62.7 -35.85 61.75 -49.05 60.25 -54.5 54.85 -60.0 49.45 -61.55 36.3 -62.7 26.95 -62.7 0.0 -62.7 -27.15 -61.7 -36.1 -60.2 -49.3 -54.7 -54.7 -49.3 -60.2 -36.1 -61.7 -27.15 -62.7 0.0 -62.7 L36.1 -61.55 Z" fill="none" stroke="#8ca9dd" stroke-linecap="round" stroke-linejoin="round" stroke-width="3.0"/>
    </g>
    <radialGradient cx="0" cy="0" fx="662.4000000000001" fy="0" gradientTransform="matrix(0.0, 0.0778, -0.1057, 0.0, 0.0, 0.0)" gradientUnits="userSpaceOnUse" id="gradient0" r="819.2" spreadMethod="pad">
      <stop offset="0.0" stop-color="#ffffff" stop-opacity="0.8"/>
      <stop offset="1.0" stop-color="#ccd7ff" stop-opacity="0.8"/>
    </radialGradient>
  </defs>
</svg>
