<?xml version="1.0" encoding="UTF-8" standalone="no"?>
<svg xmlns:ffdec="https://www.free-decompiler.com/flash" xmlns:xlink="http://www.w3.org/1999/xlink" ffdec:objectType="frame" viewBox="0 0 196.2 145.3" xmlns="http://www.w3.org/2000/svg">
  <g transform="matrix(1.0, 0.0, 0.0, 1.0, 98.1, 142.3)">
    <use ffdec:characterId="374" height="145.3" transform="matrix(1.0, 0.0, 0.0, 1.0, -98.1, -142.3)" width="196.2" xlink:href="#shape0"/>
  </g>
  <defs>
    <g id="shape0" transform="matrix(1.0, 0.0, 0.0, 1.0, 98.1, 142.3)">
      <path d="M54.0 -139.3 L68.15 -139.3 68.15 -116.5 54.0 -116.5 54.0 -139.3 M-32.8 -139.3 L-19.65 -139.3 -19.65 -116.5 -32.8 -116.5 -32.8 -139.3" fill="#cc0000" fill-rule="evenodd" stroke="none"/>
      <path d="M32.65 -139.3 L54.0 -139.3 54.0 -116.5 68.15 -116.5 95.1 -116.5 95.1 0.0 -95.1 0.0 -95.1 -116.5 -68.95 -116.5 -68.95 -139.3 -61.25 -139.3 -61.25 -116.5 -52.1 -116.5 -52.1 -139.3 -32.8 -139.3 -32.8 -116.5 -19.65 -116.5 18.8 -116.5 18.8 -139.3 23.05 -139.3 23.05 -116.5 32.65 -116.5 32.65 -139.3" fill="#ff0000" fill-rule="evenodd" stroke="none"/>
      <path d="M23.05 -139.3 L32.65 -139.3 32.65 -116.5 23.05 -116.5 23.05 -139.3 M-61.25 -139.3 L-52.1 -139.3 -52.1 -116.5 -61.25 -116.5 -61.25 -139.3" fill="#ff3333" fill-rule="evenodd" stroke="none"/>
      <path d="M23.05 -139.3 L32.65 -139.3 54.0 -139.3 68.15 -139.3 68.15 -116.5 95.1 -116.5 95.1 0.0 -95.1 0.0 -95.1 -116.5 -68.95 -116.5 -68.95 -139.3 -61.25 -139.3 -52.1 -139.3 -32.8 -139.3 -19.65 -139.3 -19.65 -116.5 18.8 -116.5 18.8 -139.3 23.05 -139.3 Z" fill="none" stroke="#660000" stroke-linecap="round" stroke-linejoin="miter-clip" stroke-miterlimit="3.0" stroke-width="6.0"/>
    </g>
  </defs>
</svg>
