<?xml version="1.0" encoding="UTF-8" standalone="no"?>
<svg xmlns:ffdec="https://www.free-decompiler.com/flash" xmlns:xlink="http://www.w3.org/1999/xlink" ffdec:objectType="frame" viewBox="0 0 59.0 247.9" xmlns="http://www.w3.org/2000/svg">
  <g transform="matrix(1.0, 0.0, 0.0, 1.0, 29.5, 126.05)">
    <use ffdec:characterId="353" height="247.9" transform="matrix(1.0, 0.0, 0.0, 1.0, -29.5, -126.05)" width="59.0" xlink:href="#shape0"/>
  </g>
  <defs>
    <g id="shape0" transform="matrix(1.0, 0.0, 0.0, 1.0, 29.5, 126.05)">
      <path d="M-19.65 -73.35 L-15.55 -71.6 -15.55 118.1 6.2 118.1 16.95 118.1 16.95 -72.0 21.0 -74.6 21.0 -74.45 Q20.7 -74.25 20.85 -74.05 L20.75 121.7 -19.3 121.85 -19.65 -73.35" fill="#c4842d" fill-rule="evenodd" stroke="none"/>
      <path d="M-15.55 -71.6 Q-8.7 -69.15 -0.15 -68.75 L-0.1 -68.75 6.2 -68.95 6.2 118.1 -15.55 118.1 -15.55 -71.6" fill="#f1cb7c" fill-rule="evenodd" stroke="none"/>
      <path d="M12.9 -118.45 Q18.15 -95.45 4.95 -83.3 1.95 -80.5 -2.05 -78.3 -6.45 -75.9 -11.95 -74.15 L-14.35 -74.9 -15.55 -75.4 Q-17.45 -76.2 -19.2 -77.15 L-20.6 -78.1 Q-26.55 -82.75 -25.9 -94.5 -25.15 -108.1 -18.0 -115.4 L-17.95 -115.4 Q-10.8 -122.55 -0.65 -122.55 6.0 -122.55 11.45 -119.4 L12.9 -118.45" fill="#dc3a3a" fill-rule="evenodd" stroke="none"/>
      <path d="M12.9 -118.45 L11.45 -119.4 Q6.0 -122.55 -0.65 -122.55 -10.8 -122.55 -17.95 -115.4 L-18.0 -115.4 Q-25.15 -108.1 -25.9 -94.5 -26.55 -82.75 -20.6 -78.1 L-19.2 -77.15 Q-17.45 -76.2 -15.55 -75.4 L-14.35 -74.9 -11.95 -74.15 Q-6.45 -75.9 -2.05 -78.3 1.95 -80.5 4.95 -83.3 18.15 -95.45 12.9 -118.45 M-19.65 -73.35 L-20.9 -74.05 Q-30.3 -79.0 -29.45 -94.65 -28.6 -109.8 -20.45 -117.85 L-20.45 -117.9 Q-12.25 -126.1 -0.65 -126.05 7.0 -126.05 13.2 -122.45 16.3 -120.65 21.75 -115.7 27.15 -110.7 29.2 -96.2 31.15 -82.35 21.05 -74.5 L21.0 -74.6 16.95 -72.0 Q11.95 -69.65 6.2 -68.95 L-0.1 -68.75 -0.15 -68.75 Q-8.7 -69.15 -15.55 -71.6 L-19.65 -73.35" fill="#c62222" fill-rule="evenodd" stroke="none"/>
      <path d="M6.2 -68.95 Q11.95 -69.65 16.95 -72.0 L16.95 118.1 6.2 118.1 6.2 -68.95" fill="#e2b767" fill-rule="evenodd" stroke="none"/>
    </g>
  </defs>
</svg>
