<?xml version="1.0" encoding="UTF-8" standalone="no"?>
<svg xmlns:ffdec="https://www.free-decompiler.com/flash" xmlns:xlink="http://www.w3.org/1999/xlink" ffdec:objectType="frame" viewBox="0 0 48.5 251.7" xmlns="http://www.w3.org/2000/svg">
  <g transform="matrix(1.0, 0.0, 0.0, 1.0, 24.55, 117.25)">
    <use ffdec:characterId="360" height="251.7" transform="matrix(1.0, 0.0, 0.0, 1.0, -24.55, -117.25)" width="48.5" xlink:href="#shape0"/>
  </g>
  <defs>
    <g id="shape0" transform="matrix(1.0, 0.0, 0.0, 1.0, 24.55, 117.25)">
      <path d="M7.25 90.95 L7.15 91.05 -8.75 91.05 -8.75 -57.95 7.25 -57.95 7.25 90.95" fill="#ffa909" fill-rule="evenodd" stroke="none"/>
      <path d="M17.0 95.05 L17.3 95.05 17.25 95.2 17.0 95.05 M7.15 95.05 L7.25 95.2 4.55 118.05 -5.15 118.05 -17.4 95.05 7.15 95.05" fill="#f3d08f" fill-rule="evenodd" stroke="none"/>
      <path d="M8.35 119.0 L-0.55 134.45 -9.4 118.05 -5.15 118.05 4.55 118.05 8.85 118.05 8.35 119.0" fill="#333333" fill-rule="evenodd" stroke="none"/>
      <path d="M18.65 -57.95 L21.95 -57.95 21.95 95.05 17.3 95.05 17.0 95.05 7.15 95.05 7.15 91.05 7.15 95.05 -17.4 95.05 -21.9 95.1 -22.55 -57.95 -18.3 -57.95 -18.3 91.05 -8.75 91.05 7.15 91.05 18.15 91.05 18.65 -57.95 M8.9 118.05 L8.35 119.0 8.85 118.05 8.9 118.05" fill="#b97800" fill-rule="evenodd" stroke="none"/>
      <path d="M21.95 95.05 L8.9 118.05 8.85 118.05 4.55 118.05 17.25 95.2 17.3 95.05 21.95 95.05 M-9.4 118.05 L-21.9 95.1 -17.4 95.05 -5.15 118.05 -9.4 118.05" fill="#bd8a2b" fill-rule="evenodd" stroke="none"/>
      <path d="M-18.35 -90.6 L-18.35 -107.35 -17.95 -109.35 Q-16.45 -113.85 -10.45 -113.85 L7.25 -113.85 7.25 -90.6 -11.15 -90.6 -18.35 -90.6" fill="#e47e93" fill-rule="evenodd" stroke="none"/>
      <path d="M7.25 -57.95 L18.65 -57.95 18.15 91.05 7.15 91.05 7.25 90.95 7.25 -57.95" fill="#e89700" fill-rule="evenodd" stroke="none"/>
      <path d="M7.25 -113.85 L11.0 -113.85 Q18.05 -113.85 18.05 -105.85 L18.05 -90.6 7.25 -90.6 7.25 -113.85" fill="#e17389" fill-rule="evenodd" stroke="none"/>
      <path d="M7.15 95.05 L17.0 95.05 17.25 95.2 4.55 118.05 7.25 95.2 7.15 95.05" fill="#f0c575" fill-rule="evenodd" stroke="none"/>
      <path d="M18.05 -90.6 L18.05 -105.85 Q18.05 -113.85 11.0 -113.85 L7.25 -113.85 -10.45 -113.85 Q-16.45 -113.85 -17.95 -109.35 L-18.35 -107.35 -18.35 -90.6 -22.5 -90.6 -22.55 -90.6 -22.3 -108.25 Q-21.75 -112.7 -18.25 -115.15 -15.75 -117.0 -11.65 -117.25 L11.6 -117.25 Q21.55 -117.25 22.0 -106.4 L21.95 -90.6 18.05 -90.6" fill="#cc536b" fill-rule="evenodd" stroke="none"/>
      <path d="M18.05 -90.6 L21.95 -90.6 21.95 -57.95 18.65 -57.95 7.25 -57.95 -8.75 -57.95 -11.15 -57.95 -11.15 -90.6 7.25 -90.6 18.05 -90.6" fill="#b5b5b5" fill-rule="evenodd" stroke="none"/>
      <path d="M-8.75 91.05 L-18.3 91.05 -18.3 -57.95 -11.15 -57.95 -8.75 -57.95 -8.75 91.05" fill="#ffbf48" fill-rule="evenodd" stroke="none"/>
      <path d="M-22.5 -90.6 L-18.35 -90.6 -11.15 -90.6 -11.15 -57.95 -18.3 -57.95 -22.55 -57.95 -22.5 -90.6" fill="#c3c3c3" fill-rule="evenodd" stroke="none"/>
      <path d="M18.05 -90.6 L21.95 -90.6 21.95 -57.95 18.65 -57.95 7.25 -57.95 -8.75 -57.95 -11.15 -57.95 -18.3 -57.95 -22.55 -57.95 -22.5 -90.6 -18.35 -90.6 -11.15 -90.6 7.25 -90.6 18.05 -90.6 M-22.55 -90.6 L-22.5 -90.6" fill="none" stroke="#666666" stroke-linecap="round" stroke-linejoin="miter-clip" stroke-miterlimit="5.0" stroke-width="4.0"/>
    </g>
  </defs>
</svg>
