<?xml version="1.0" encoding="UTF-8" standalone="no"?>
<svg xmlns:ffdec="https://www.free-decompiler.com/flash" xmlns:xlink="http://www.w3.org/1999/xlink" ffdec:objectType="frame" viewBox="0 0 203.25 117.95" xmlns="http://www.w3.org/2000/svg">
  <g transform="matrix(1.0, 0.0, 0.0, 1.0, 101.65, 50.6)">
    <use ffdec:characterId="273" height="117.95" transform="matrix(1.0, 0.0, 0.0, 1.0, -101.65, -50.6)" width="203.25" xlink:href="#shape0"/>
  </g>
  <defs>
    <g id="shape0" transform="matrix(1.0, 0.0, 0.0, 1.0, 101.65, 50.6)">
      <path d="M0.5 65.4 L-99.2 -17.55 -90.15 -17.55 -43.85 24.85 0.5 65.4 -11.2 40.7 -0.25 -17.55 10.2 44.0 0.5 65.4 M-63.8 -42.3 L-54.05 -49.1 -35.55 -49.1 -63.8 -42.3" fill="#e00518" fill-rule="evenodd" stroke="none"/>
      <path d="M38.0 -17.65 L27.9 -41.7 69.0 -17.65 38.0 -17.65 10.2 44.0 -0.25 -17.55 38.0 -17.65 M69.0 -17.65 L67.85 -39.4 89.9 -17.7 69.0 -17.65 M-99.2 -17.55 L-63.8 -42.3 -70.45 -17.55 -70.5 -17.55 -90.15 -17.55 -99.2 -17.55 M-70.45 -17.5 L-70.4 -17.55 -38.85 -17.6 -11.2 40.7 -70.45 -17.5" fill="#a30518" fill-rule="evenodd" stroke="none"/>
      <path d="M10.2 44.0 L69.0 -17.65 39.15 29.5 89.9 -17.7 99.15 -17.7 0.5 65.4 -43.85 24.85 -70.45 -17.5 -70.45 -17.55 -70.5 -17.55 -70.45 -17.55 -63.8 -42.3 -35.55 -49.1 -26.9 -41.75 -0.25 -17.55 -38.85 -17.6 -26.9 -41.75 -70.4 -17.55 -70.45 -17.5 0.5 65.4 10.2 44.0 M36.7 -49.1 L27.9 -41.7 0.55 -49.1 36.7 -49.1" fill="#ff4255" fill-rule="evenodd" stroke="none"/>
      <path d="M0.55 -49.1 L-26.9 -41.75 -35.55 -49.1 0.55 -49.1 M-70.4 -17.55 L-26.9 -41.75 -38.85 -17.6 -70.4 -17.55" fill="#ff7f92" fill-rule="evenodd" stroke="none"/>
      <path d="M0.55 -49.1 L27.9 -41.7 -0.25 -17.55 -26.9 -41.75 0.55 -49.1 M69.0 -17.65 L89.9 -17.7 39.15 29.5 69.0 -17.65" fill="#ff2336" fill-rule="evenodd" stroke="none"/>
      <path d="M38.0 -17.65 L69.0 -17.65 27.9 -41.7 38.0 -17.65 -0.25 -17.55 27.9 -41.7 36.7 -49.1 67.85 -39.4 69.0 -17.65 10.2 44.0 38.0 -17.65 M-70.5 -17.55 L-70.45 -17.55 -70.45 -17.5 -43.85 24.85 -90.15 -17.55 -70.5 -17.55 M0.5 65.4 L-70.45 -17.5 -11.2 40.7 -38.85 -17.6 -0.25 -17.55 -11.2 40.7 0.5 65.4" fill="#c20518" fill-rule="evenodd" stroke="none"/>
      <path d="M67.85 -39.4 L36.7 -49.1 54.15 -49.1 99.15 -17.7 89.9 -17.7 67.85 -39.4" fill="#d98ead" fill-rule="evenodd" stroke="none"/>
      <path d="M36.7 -49.1 L0.55 -49.1 -35.55 -49.1 -54.05 -49.1 -63.8 -42.3 -99.2 -17.55 0.5 65.4 99.15 -17.7 54.15 -49.1 36.7 -49.1 Z" fill="none" stroke="#660014" stroke-linecap="round" stroke-linejoin="miter-clip" stroke-miterlimit="12.0" stroke-width="3.0"/>
    </g>
  </defs>
</svg>
