<?xml version="1.0" encoding="UTF-8" standalone="no"?>
<svg xmlns:ffdec="https://www.free-decompiler.com/flash" xmlns:xlink="http://www.w3.org/1999/xlink" ffdec:objectType="frame" viewBox="0 0 189.05 206.15" xmlns="http://www.w3.org/2000/svg">
  <g transform="matrix(1.0, 0.0, 0.0, 1.0, 40.35, 59.35)">
    <use ffdec:characterId="421" height="127.65" transform="matrix(1.0, 0.0, 0.0, 1.0, -40.35, -59.35)" width="109.9" xlink:href="#shape0"/>
    <use ffdec:characterId="408" height="101.0" transform="matrix(1.16, 0.0, 0.0, 1.16, 31.5198, 29.6198)" width="101.0" xlink:href="#sprite0"/>
  </g>
  <defs>
    <g id="shape0" transform="matrix(1.0, 0.0, 0.0, 1.0, 40.35, 59.35)">
      <path d="M69.3 -54.25 Q69.3 -50.6 66.9 -23.95 L64.05 8.0 63.25 23.3 Q62.7 32.85 61.8 39.05 61.25 42.85 61.3 49.45 61.35 56.55 61.1 58.85 60.05 68.3 51.0 68.3 41.55 68.3 42.55 65.1 46.55 41.05 46.55 35.0 46.45 14.4 48.55 5.0 L48.55 -21.5 Q40.3 -17.85 33.2 -11.0 26.2 -3.55 22.3 -0.5 16.6 4.4 9.65 8.6 -4.0 16.8 -15.0 16.8 -40.35 14.65 -40.35 13.1 -40.35 11.95 -26.55 7.55 -10.7 2.55 -4.6 -2.5 7.1 -12.35 13.0 -22.0 21.1 -35.5 28.7 -43.0 45.25 -59.35 65.5 -59.35 70.55 -59.35 69.3 -54.25" fill="#000000" fill-rule="evenodd" stroke="none"/>
    </g>
    <g id="sprite0" transform="matrix(1.0, 0.0, 0.0, 1.0, 50.5, 50.5)">
      <use ffdec:characterId="407" height="101.0" transform="matrix(1.0, 0.0, 0.0, 1.0, -50.5, -50.5)" width="101.0" xlink:href="#shape1"/>
    </g>
    <g id="shape1" transform="matrix(1.0, 0.0, 0.0, 1.0, 50.5, 50.5)">
      <path d="M-36.05 34.65 Q-43.0 23.25 -43.0 9.0 -43.0 -11.7 -28.35 -26.35 -13.7 -41.0 7.0 -41.0 27.7 -41.0 42.35 -26.35 L43.05 -25.6 Q50.0 -14.25 50.0 0.0 50.0 20.7 35.35 35.35 20.7 50.0 0.0 50.0 -20.7 50.0 -35.35 35.35 L-36.05 34.65 M29.95 -27.55 L29.75 -27.75 Q25.5 -32.0 19.5 -32.0 13.5 -32.0 9.25 -27.75 5.0 -23.5 5.0 -17.5 5.0 -13.35 7.05 -10.05 7.95 -8.6 9.25 -7.25 13.5 -3.0 19.5 -3.0 25.5 -3.0 29.75 -7.25 34.0 -11.5 34.0 -17.5 34.0 -23.35 29.95 -27.55" fill="#0d0b0d" fill-rule="evenodd" stroke="none"/>
      <path d="M-36.05 34.65 Q-50.0 20.2 -50.0 0.0 -50.0 -20.7 -35.35 -35.35 -20.7 -50.0 0.0 -50.0 20.7 -50.0 35.35 -35.35 39.9 -30.8 43.05 -25.6 L42.35 -26.35 Q27.7 -41.0 7.0 -41.0 -13.7 -41.0 -28.35 -26.35 -43.0 -11.7 -43.0 9.0 -43.0 23.25 -36.05 34.65 M29.95 -27.55 Q34.0 -23.35 34.0 -17.5 34.0 -11.5 29.75 -7.25 25.5 -3.0 19.5 -3.0 13.5 -3.0 9.25 -7.25 7.95 -8.6 7.05 -10.05 5.0 -13.35 5.0 -17.5 5.0 -23.5 9.25 -27.75 13.5 -32.0 19.5 -32.0 25.5 -32.0 29.75 -27.75 L29.95 -27.55" fill="#181818" fill-rule="evenodd" stroke="none"/>
      <path d="M43.05 -25.6 Q39.9 -30.8 35.35 -35.35 20.7 -50.0 0.0 -50.0 -20.7 -50.0 -35.35 -35.35 -50.0 -20.7 -50.0 0.0 -50.0 20.2 -36.05 34.65 L-35.35 35.35 Q-20.7 50.0 0.0 50.0 20.7 50.0 35.35 35.35 50.0 20.7 50.0 0.0 50.0 -14.25 43.05 -25.6 Z" fill="none" stroke="#000000" stroke-linecap="round" stroke-linejoin="round" stroke-width="1.0"/>
    </g>
  </defs>
</svg>
